<svg xmlns="http://www.w3.org/2000/svg" width="40.188" height="40" viewBox="0 0 80.375 80">
  <metadata><?xpacket begin="﻿" id="W5M0MpCehiHzreSzNTczkc9d"?>
<x:xmpmeta xmlns:x="adobe:ns:meta/" x:xmptk="Adobe XMP Core 5.6-c140 79.160451, 2017/05/06-01:08:21        ">
   <rdf:RDF xmlns:rdf="http://www.w3.org/1999/02/22-rdf-syntax-ns#">
      <rdf:Description rdf:about=""/>
   </rdf:RDF>
</x:xmpmeta>
                                                                                                    
                                                                                                    
                                                                                                    
                                                                                                    
                                                                                                    
                                                                                                    
                                                                                                    
                                                                                                    
                                                                                                    
                                                                                                    
                                                                                                    
                                                                                                    
                                                                                                    
                                                                                                    
                                                                                                    
                                                                                                    
                                                                                                    
                                                                                                    
                                                                                                    
                                                                                                    
                           
<?xpacket end="w"?></metadata>
<defs>
    <style>
      .cls-1 {
        fill: #fff;
        fill-rule: evenodd;
      }
    </style>
  </defs>
  <path id="arrow_left" data-name="arrow left" class="cls-1" d="M625.138,6931a1.824,1.824,0,0,1-1.273-.52l-14.289-14.21a1.8,1.8,0,0,1,0-2.54l14.289-14.21a1.817,1.817,0,0,1,2.545,0,1.783,1.783,0,0,1,.527,1.27,1.743,1.743,0,0,1-.527,1.26L613.393,6915l13.017,12.95a1.743,1.743,0,0,1,.527,1.26,1.783,1.783,0,0,1-.527,1.27A1.82,1.82,0,0,1,625.138,6931Zm-7.1,24a40.67,40.67,0,0,1-29.066-12.28,39.588,39.588,0,0,1-11.024-30.94,40.112,40.112,0,0,1,38.1-36.73c0.643-.03,1.285-0.05,1.927-0.05a39.995,39.995,0,0,1,1.988,79.95C619.321,6954.98,618.677,6955,618.036,6955Zm-0.073-76.73c-0.586,0-1.172.02-1.761,0.04a36.84,36.84,0,0,0-34.979,33.74,36.33,36.33,0,0,0,10.117,28.4,37.327,37.327,0,0,0,26.7,11.28c0.59,0,1.182-.01,1.775-0.04A36.73,36.73,0,0,0,617.963,6878.27Z" transform="translate(-577.781 -6875)"/>
</svg>
