<svg xmlns="http://www.w3.org/2000/svg" width="40.19" height="40" viewBox="0 0 80.38 80">
  <metadata><?xpacket begin="﻿" id="W5M0MpCehiHzreSzNTczkc9d"?>
<x:xmpmeta xmlns:x="adobe:ns:meta/" x:xmptk="Adobe XMP Core 5.6-c140 79.160451, 2017/05/06-01:08:21        ">
   <rdf:RDF xmlns:rdf="http://www.w3.org/1999/02/22-rdf-syntax-ns#">
      <rdf:Description rdf:about=""/>
   </rdf:RDF>
</x:xmpmeta>
                                                                                                    
                                                                                                    
                                                                                                    
                                                                                                    
                                                                                                    
                                                                                                    
                                                                                                    
                                                                                                    
                                                                                                    
                                                                                                    
                                                                                                    
                                                                                                    
                                                                                                    
                                                                                                    
                                                                                                    
                                                                                                    
                                                                                                    
                                                                                                    
                                                                                                    
                                                                                                    
                           
<?xpacket end="w"?></metadata>
<defs>
    <style>
      .cls-1 {
        fill: #fff;
        fill-rule: evenodd;
      }
    </style>
  </defs>
  <path id="arrow_right" data-name="arrow right" class="cls-1" d="M2174.8,6931a1.819,1.819,0,0,0,1.27-.52l14.29-14.21a1.8,1.8,0,0,0,0-2.54l-14.29-14.21a1.811,1.811,0,0,0-2.54,0,1.786,1.786,0,0,0-.53,1.27,1.746,1.746,0,0,0,.53,1.26l13.01,12.95-13.01,12.95a1.746,1.746,0,0,0-.53,1.26,1.786,1.786,0,0,0,.53,1.27A1.819,1.819,0,0,0,2174.8,6931Zm7.1,24a40.679,40.679,0,0,0,29.07-12.28,39.592,39.592,0,0,0,11.02-30.94,40.11,40.11,0,0,0-38.1-36.73c-0.64-.03-1.29-0.05-1.93-0.05a40.11,40.11,0,0,0-40.09,43.21,40.1,40.1,0,0,0,38.1,36.74C2180.62,6954.98,2181.26,6955,2181.9,6955Zm0.07-76.73c0.59,0,1.18.02,1.77,0.04a36.827,36.827,0,0,1,34.97,33.74,36.3,36.3,0,0,1-10.11,28.4,37.333,37.333,0,0,1-26.7,11.28c-0.59,0-1.18-.01-1.77-0.04A36.73,36.73,0,0,1,2181.97,6878.27Z" transform="translate(-2141.78 -6875)"/>
</svg>
