<svg xmlns="http://www.w3.org/2000/svg" width="40" height="40" viewBox="0 0 80 80">
  <metadata><?xpacket begin="﻿" id="W5M0MpCehiHzreSzNTczkc9d"?>
<x:xmpmeta xmlns:x="adobe:ns:meta/" x:xmptk="Adobe XMP Core 5.6-c140 79.160451, 2017/05/06-01:08:21        ">
   <rdf:RDF xmlns:rdf="http://www.w3.org/1999/02/22-rdf-syntax-ns#">
      <rdf:Description rdf:about=""/>
   </rdf:RDF>
</x:xmpmeta>
                                                                                                    
                                                                                                    
                                                                                                    
                                                                                                    
                                                                                                    
                                                                                                    
                                                                                                    
                                                                                                    
                                                                                                    
                                                                                                    
                                                                                                    
                                                                                                    
                                                                                                    
                                                                                                    
                                                                                                    
                                                                                                    
                                                                                                    
                                                                                                    
                                                                                                    
                                                                                                    
                           
<?xpacket end="w"?></metadata>
<defs>
    <style>
      .cls-1 {
        fill: #7b80a4;
        fill-rule: evenodd;
      }
    </style>
  </defs>
  <path id="facebook" class="cls-1" d="M2518,8760a40.266,40.266,0,0,0-6.25,80v-28.12h-10.16v-11.64h10.16v-8.86c0-10.1,5.97-15.66,15.11-15.66a61.452,61.452,0,0,1,8.95.78v9.91h-5.27c-4.25.08-5.91,2.5-6.23,5.24v0.01c-0.01.04-.01,0.09-0.02,0.14h0c0,0.04-.01.08-0.01,0.12v0.03c0,0.04-.01.07-0.01,0.11v0.04c0,0.03-.01.06-0.01,0.09v0.06a0.57,0.57,0,0,1-.01.13v7.86h11.09l-1.77,11.64h-9.32V8840A40.266,40.266,0,0,0,2518,8760Z" transform="translate(-2478 -8760)"/>
</svg>
