<svg xmlns="http://www.w3.org/2000/svg" width="40" height="40" viewBox="0 0 80 80">
  <metadata><?xpacket begin="﻿" id="W5M0MpCehiHzreSzNTczkc9d"?>
<x:xmpmeta xmlns:x="adobe:ns:meta/" x:xmptk="Adobe XMP Core 5.6-c140 79.160451, 2017/05/06-01:08:21        ">
   <rdf:RDF xmlns:rdf="http://www.w3.org/1999/02/22-rdf-syntax-ns#">
      <rdf:Description rdf:about=""/>
   </rdf:RDF>
</x:xmpmeta>
                                                                                                    
                                                                                                    
                                                                                                    
                                                                                                    
                                                                                                    
                                                                                                    
                                                                                                    
                                                                                                    
                                                                                                    
                                                                                                    
                                                                                                    
                                                                                                    
                                                                                                    
                                                                                                    
                                                                                                    
                                                                                                    
                                                                                                    
                                                                                                    
                                                                                                    
                                                                                                    
                           
<?xpacket end="w"?></metadata>
<defs>
    <style>
      .cls-1 {
        fill: #7b80a4;
        fill-rule: evenodd;
      }
    </style>
  </defs>
  <path id="twitter" class="cls-1" d="M2396,8760a40,40,0,1,0,40,40A40,40,0,0,0,2396,8760Zm20.1,32.42c0.02,0.4.02,0.82,0.02,1.24,0,12.74-9.7,27.44-27.44,27.44a26.869,26.869,0,0,1-14.74-4.36,17.537,17.537,0,0,0,2.3.14,19.386,19.386,0,0,0,11.98-4.12,9.629,9.629,0,0,1-9-6.7,9.208,9.208,0,0,0,1.82.18,9.614,9.614,0,0,0,2.54-.34,9.655,9.655,0,0,1-7.74-9.46v-0.12a9.474,9.474,0,0,0,4.36,1.2,9.639,9.639,0,0,1-3-12.86,27.359,27.359,0,0,0,19.88,10.08,8.838,8.838,0,0,1-.26-2.2,9.65,9.65,0,0,1,16.68-6.6,19.53,19.53,0,0,0,6.12-2.34,9.639,9.639,0,0,1-4.24,5.34,19.574,19.574,0,0,0,5.54-1.52A19.758,19.758,0,0,1,2416.1,8792.42Z" transform="translate(-2356 -8760)"/>
</svg>
