<?xml version="1.0" encoding="utf-8"?><svg xmlns="http://www.w3.org/2000/svg" xmlns:xlink="http://www.w3.org/1999/xlink" width="84" height="99.985" viewBox="0 0 168 199.97">
  <metadata><?xpacket begin="﻿" id="W5M0MpCehiHzreSzNTczkc9d"?>
<x:xmpmeta xmlns:x="adobe:ns:meta/" x:xmptk="Adobe XMP Core 5.6-c140 79.160451, 2017/05/06-01:08:21        ">
   <rdf:RDF xmlns:rdf="http://www.w3.org/1999/02/22-rdf-syntax-ns#">
      <rdf:Description rdf:about=""/>
   </rdf:RDF>
</x:xmpmeta>
                                                                                                    
                                                                                                    
                                                                                                    
                                                                                                    
                                                                                                    
                                                                                                    
                                                                                                    
                                                                                                    
                                                                                                    
                                                                                                    
                                                                                                    
                                                                                                    
                                                                                                    
                                                                                                    
                                                                                                    
                                                                                                    
                                                                                                    
                                                                                                    
                                                                                                    
                                                                                                    
                           
<?xpacket end="w"?></metadata>
<defs>
    <style>
      .cls-1 {
        fill-rule: evenodd;
        fill: url(#linear-gradient);
      }
    </style>
    <linearGradient id="linear-gradient" x1="719" y1="2539.97" x2="719" y2="2340" gradientUnits="userSpaceOnUse">
      <stop offset="0" stop-color="#e2adb9"/>
      <stop offset="1" stop-color="#b869b4"/>
    </linearGradient>
  </defs>
  <path id="apple" class="cls-1" d="M799.479,2495.86a108.608,108.608,0,0,1-10.723,19.33q-8.459,12.09-13.813,16.74-8.274,7.635-17.753,7.84c-4.543,0-10.022-1.29-16.4-3.92a46.907,46.907,0,0,0-17.654-3.92,48.5,48.5,0,0,0-18.155,3.92q-9.717,3.945-15.687,4.13-9.1.39-18.154-8.05-5.779-5.055-14.447-17.33a120.072,120.072,0,0,1-15.279-30.43A111.72,111.72,0,0,1,635,2447.9q0-20.1,8.673-34.65a50.9,50.9,0,0,1,18.166-18.42,48.655,48.655,0,0,1,24.558-6.95c4.82,0,11.141,1.49,19,4.43q11.749,4.425,15.067,4.44c1.648,0,7.235-1.75,16.706-5.23q13.436-4.845,22.709-4.04,25.17,2.025,37.771,19.94-22.512,13.68-22.284,38.27,0.2,19.14,13.826,31.81A45.35,45.35,0,0,0,803,2486.59q-1.662,4.83-3.521,9.27h0ZM760.994,2344q0,15-10.908,27.99c-8.766,10.27-19.368,16.21-30.866,15.27a31.291,31.291,0,0,1-.231-3.79c0-9.6,4.169-19.87,11.571-28.28a44.6,44.6,0,0,1,14.1-10.61,41.881,41.881,0,0,1,16.128-4.58,36.587,36.587,0,0,1,.209,4h0Z" transform="translate(-635 -2340)"/>
</svg>
