<?xml version="1.0" encoding="utf-8"?><svg xmlns="http://www.w3.org/2000/svg" xmlns:xlink="http://www.w3.org/1999/xlink" width="76.515" height="100" viewBox="0 0 153.031 200">
  <metadata><?xpacket begin="﻿" id="W5M0MpCehiHzreSzNTczkc9d"?>
<x:xmpmeta xmlns:x="adobe:ns:meta/" x:xmptk="Adobe XMP Core 5.6-c140 79.160451, 2017/05/06-01:08:21        ">
   <rdf:RDF xmlns:rdf="http://www.w3.org/1999/02/22-rdf-syntax-ns#">
      <rdf:Description rdf:about=""/>
   </rdf:RDF>
</x:xmpmeta>
                                                                                                    
                                                                                                    
                                                                                                    
                                                                                                    
                                                                                                    
                                                                                                    
                                                                                                    
                                                                                                    
                                                                                                    
                                                                                                    
                                                                                                    
                                                                                                    
                                                                                                    
                                                                                                    
                                                                                                    
                                                                                                    
                                                                                                    
                                                                                                    
                                                                                                    
                                                                                                    
                           
<?xpacket end="w"?></metadata>
<defs>
    <style>
      .cls-1 {
        fill-rule: evenodd;
        fill: url(#linear-gradient);
      }
    </style>
    <linearGradient id="linear-gradient" x1="1056.485" y1="2559.78" x2="1056.485" y2="2359.78" gradientUnits="userSpaceOnUse">
      <stop offset="0" stop-color="#e2adb9"/>
      <stop offset="1" stop-color="#b869b4"/>
    </linearGradient>
  </defs>
  <path id="Cocos2D" class="cls-1" d="M1121.22,2495.33c4.25-1.14,7.88-2.11,11.48-3.08a2.242,2.242,0,0,1,.29.81c-8.7,18.11-18.31,35.56-33.82,48.92-11.94,10.3-25.6,16.49-41.36,17.65a55.457,55.457,0,0,1-22.35-2.96c-24.74-8.56-40.158-26.19-48.514-50.63-4.622-13.52-6.476-27.51-6.837-41.72-0.219-8.6-.041-17.22-0.041-25.82l0.85-.3c3.092,4.52,6.183,9.04,9.584,14.01,0.982-2.86,1.743-5.15,2.554-7.43,8.9-24.96,24.674-44.88,44.954-61.41,2.38-1.94,2.94-3.62,2.13-6.49-1.52-5.36-2.66-10.82-4.17-17.1a188.618,188.618,0,0,1,66.43,62.74c1.28-4.06,2.38-7.55,3.71-11.76C1117.68,2438.09,1126.14,2465.22,1121.22,2495.33Zm-134.228-34.91c0.24,21.3,3.345,40.97,13.5,58.99,8.53,15.13,21.2,25.26,37.5,30.81a47.911,47.911,0,0,0,22.41,2.18c29.53-4.23,45.93-24.6,59.88-49.23-3.15.72-5.52,1.26-8.12,1.85,8.17-29.31.18-61.18-5.41-72.05-0.79,2.44-1.55,4.78-2.5,7.67-13.3-27.42-32.86-48.42-57.63-66.25,1.99,8.46,3.74,15.89,5.5,23.33-0.17.09-.33,0.19-0.5,0.29-1.69-1.88-3.38-3.76-5.32-5.91-2.97,5.28-5.65,10.04-8.33,14.8-0.19-.1-0.39-0.19-0.59-0.29,1.24-5.29,2.47-10.58,3.83-16.39a12.363,12.363,0,0,0-1.75.9c-21.06,18.09-36.36,39.88-43.355,67.18-1.4,5.48-1.319,10.26,2.12,14.84a18.419,18.419,0,0,1,1.519,3c-0.24.16-.48,0.33-0.721,0.49C995.2,2471.48,991.382,2466.34,986.992,2460.42Zm75.268,45.65c0.08-7.54,2.28-13.58,6.92-18.59,5.04-5.43,11.28-7.99,18.6-6.21,7.07,1.72,11.32,6.76,13.29,13.6a25.605,25.605,0,0,1-5.18,24.66c-5.18,6.2-11.88,9.11-19.92,6.78-8.21-2.38-11.97-8.74-13.43-16.75A27.725,27.725,0,0,1,1062.26,2506.07Zm20.54,2.79a5.093,5.093,0,0,0-5.27-5.21A5.25,5.25,0,1,0,1082.8,2508.86Zm-33.21-2.41a27,27,0,0,1-.46,4.3c-1.86,7.96-6.05,14.12-14.39,15.89-8.26,1.74-14.81-1.75-19.77-8.32-6.51-8.64-7.07-20.78-1.51-29.3a17.439,17.439,0,0,1,23.6-5.95C1044.71,2487.26,1049.55,2495.92,1049.59,2506.45ZM1039.5,2509a5.216,5.216,0,1,0-5.3,5.14A5,5,0,0,0,1039.5,2509Zm43.42-59.58c0.61-5.26,1.21-10.51,1.82-15.82,4.72,2.48,10.4,12.75,11.88,21.22-2.73-3.81-5.49-7.68-8.49-11.86l-4.7,6.72C1083.26,2449.59,1083.09,2449.51,1082.92,2449.42Zm-20.98,11.54c-1.93-1.61-3.85-3.22-6.41-5.37-1.82,4.75-3.55,9.3-5.46,14.3,0.12-8.94,1.2-17.14,5.87-24.97,2.24,5.47,4.29,10.5,6.35,15.54C1062.17,2460.63,1062.06,2460.8,1061.94,2460.96Zm-48.71-6.32c2.25-8.68,5.66-15.66,11.85-21.94,0.69,5.94,1.3,11.18,1.91,16.42-0.19.12-.38,0.24-0.56,0.37-1.4-1.98-2.8-3.96-4.56-6.46C1019.12,2446.73,1016.45,2450.31,1013.23,2454.64Zm40.13-43.09q4.875,7.245,9.74,14.49c-0.31.23-.61,0.47-0.92,0.71-2.27-2.16-4.55-4.32-7.05-6.7-2.11,2.59-4.05,4.98-6,7.36-0.18-.09-0.37-0.17-0.55-0.26q1.95-7.545,3.89-15.08C1052.77,2411.89,1053.07,2411.72,1053.36,2411.55Z" transform="translate(-979.969 -2359.78)"/>
</svg>
