<?xml version="1.0" encoding="utf-8"?><svg xmlns="http://www.w3.org/2000/svg" xmlns:xlink="http://www.w3.org/1999/xlink" width="88.5" height="100" viewBox="0 0 177 200">
  <metadata><?xpacket begin="﻿" id="W5M0MpCehiHzreSzNTczkc9d"?>
<x:xmpmeta xmlns:x="adobe:ns:meta/" x:xmptk="Adobe XMP Core 5.6-c140 79.160451, 2017/05/06-01:08:21        ">
   <rdf:RDF xmlns:rdf="http://www.w3.org/1999/02/22-rdf-syntax-ns#">
      <rdf:Description rdf:about=""/>
   </rdf:RDF>
</x:xmpmeta>
                                                                                                    
                                                                                                    
                                                                                                    
                                                                                                    
                                                                                                    
                                                                                                    
                                                                                                    
                                                                                                    
                                                                                                    
                                                                                                    
                                                                                                    
                                                                                                    
                                                                                                    
                                                                                                    
                                                                                                    
                                                                                                    
                                                                                                    
                                                                                                    
                                                                                                    
                                                                                                    
                           
<?xpacket end="w"?></metadata>
<defs>
    <style>
      .cls-1 {
        fill-rule: evenodd;
        fill: url(#linear-gradient);
      }
    </style>
    <linearGradient id="linear-gradient" x1="718.5" y1="1250.06" x2="718.5" y2="1050.06" gradientUnits="userSpaceOnUse">
      <stop offset="0" stop-color="#e2adb9"/>
      <stop offset="1" stop-color="#b869b4"/>
    </linearGradient>
  </defs>
  <path id="cplus" class="cls-1" d="M804.748,1200.05a15.674,15.674,0,0,1-5.412,5.75l-73.172,42.42a16.963,16.963,0,0,1-15.328,0l-73.172-42.42a15.682,15.682,0,0,1-5.412-5.75l35.5-20.58a56.089,56.089,0,0,0,96.632-1.18l-24.326-14.14a28.036,28.036,0,0,1-47.951,1.2l26.388-15.3,86.249-50a15.817,15.817,0,0,1,2.251,7.58v84.84A15.787,15.787,0,0,1,804.748,1200.05ZM777.5,1146.76h-6.556v-6.58h-6.555v6.58h-6.556v6.58h6.556v6.59h6.555v-6.59H777.5v-6.58Zm24.583,0h-6.556v-6.58h-6.554v6.58h-6.556v6.58h6.556v6.59h6.554v-6.59h6.556v-6.58Zm-114.478,3.29a28.088,28.088,0,0,1,52.456-14.1l24.327-14.14a56.266,56.266,0,1,0-96.631,57.66l-35.5,20.58a15.776,15.776,0,0,1-2.252-7.58v-84.84a17.11,17.11,0,0,1,7.664-13.33l73.172-42.41a16.9,16.9,0,0,1,15.328,0l73.172,42.41a15.85,15.85,0,0,1,5.413,5.75l-86.249,50-26.388,15.3A28.115,28.115,0,0,1,687.605,1150.05Z" transform="translate(-630 -1050.06)"/>
</svg>
