<?xml version="1.0" encoding="utf-8"?><svg xmlns="http://www.w3.org/2000/svg" xmlns:xlink="http://www.w3.org/1999/xlink" width="150" height="24.5" viewBox="0 0 300 49">
  <metadata><?xpacket begin="﻿" id="W5M0MpCehiHzreSzNTczkc9d"?>
<x:xmpmeta xmlns:x="adobe:ns:meta/" x:xmptk="Adobe XMP Core 5.6-c140 79.160451, 2017/05/06-01:08:21        ">
   <rdf:RDF xmlns:rdf="http://www.w3.org/1999/02/22-rdf-syntax-ns#">
      <rdf:Description rdf:about=""/>
   </rdf:RDF>
</x:xmpmeta>
                                                                                                    
                                                                                                    
                                                                                                    
                                                                                                    
                                                                                                    
                                                                                                    
                                                                                                    
                                                                                                    
                                                                                                    
                                                                                                    
                                                                                                    
                                                                                                    
                                                                                                    
                                                                                                    
                                                                                                    
                                                                                                    
                                                                                                    
                                                                                                    
                                                                                                    
                                                                                                    
                           
<?xpacket end="w"?></metadata>
<defs>
    <style>
      .cls-1 {
        fill-rule: evenodd;
        fill: url(#linear-gradient);
      }
    </style>
    <linearGradient id="linear-gradient" x1="1716.28" y1="2484" x2="1765.28" y2="2435" gradientUnits="userSpaceOnUse">
      <stop offset="0" stop-color="#e2adb9"/>
      <stop offset="1" stop-color="#b869b4"/>
    </linearGradient>
  </defs>
  <path id="LibGDX" class="cls-1" d="M1742.29,2435v11.6c-7.44.34-14.91,0.11-22.36,0.15-7.36.04-14.71,0.01-22.39,0.01-0.56.72-1.27,1.61-2.32,2.94v20.29c0.61,0.43,1.54,1.1,3.01,2.14h29.73c0.35-.59.95-1.58,1.54-2.57,0.21,0.16.41,0.32,0.62,0.48v-3.34c-0.66-.52-1.67-1.32-2.97-2.34H1711.4v-10.74c6.21,0,12.37-.13,18.52.04,5.79,0.16,13.51,6.04,13.37,11.38,2.27,3.54.66,7.08-.72,10.16-1.75,3.89-4.69,7.13-9.52,7.86a2.335,2.335,0,0,0-.8.94h-39.13a1.806,1.806,0,0,0-.36-0.81c-8.03-1.69-11.27-8.15-11.61-14.63-0.32-6.03-.21-12.08,0-18.12a15.66,15.66,0,0,1,1.61-6.65c2.02-3.8,4.74-7.12,9.56-7.85a2.261,2.261,0,0,0,.8-0.94h49.17Zm9.03,49v-30.16c2.22-.45,4.52-0.15,6.79-0.21,2.31-.05,4.63-0.01,7.12-0.01v18.39h33.02c0.42-.51,1.16-1.38,2.15-2.58v-20.37c-0.66-.5-1.57-1.19-3.02-2.28h-46.06V2435h51.17a1.7,1.7,0,0,0,.36.81c8.03,1.69,11.27,8.15,11.61,14.63,0.31,6.03.21,12.08-.01,18.12a15.65,15.65,0,0,1-1.6,6.65c-2.02,3.8-4.74,7.12-9.56,7.85a2.261,2.261,0,0,0-.8.94h-51.17Zm139.46,0h-19.06q-9.225-9.36-18.45-18.73c-3.24,3.16-6.22,6.01-9.12,8.92-3.22,3.24-6.37,6.54-9.56,9.81h-19.06a23.883,23.883,0,0,1,1.78-2.21q8.82-8.67,17.7-17.3c1.62-1.59,3.24-3.17,5.1-4.99-0.92-.9-1.6-1.56-2.27-2.22-5.9-5.76-11.82-11.51-17.7-17.31-1.61-1.58-3.08-3.31-4.61-4.97h19.06l18.46,18.73c3.23-3.16,6.21-6.01,9.11-8.92,3.22-3.24,6.38-6.54,9.56-9.81h19.06a23.883,23.883,0,0,1-1.78,2.21q-8.82,8.67-17.7,17.3c-1.62,1.59-3.24,3.17-5.1,4.99,0.92,0.9,1.6,1.56,2.27,2.22,5.9,5.76,11.82,11.51,17.7,17.31C1887.78,2480.61,1889.25,2482.34,1890.78,2484Zm-253.85-49h14.05v18.62c3.56,0,6.86-.13,10.15.03,3.91,0.19,7.69,1.31,9.98,4.55,3.71,5.24,5.48,10.83,2.33,17.21-1.97,4-4.23,7.18-9.06,7.79a1.87,1.87,0,0,0-.36.8h-27.09v-49Zm14.23,29.47v7.67h6.77c1.43-1.04,2.36-1.72,3-2.19v-2.65c-1.04-1.29-1.75-2.18-2.27-2.83h-7.5ZM1604.83,2435v49h-14.05v-49h14.05Zm9.03,49v-30.15c2.21-.48,4.51-0.16,6.77-0.22,2.31-.06,4.63-0.01,7.27-0.01V2484h-14.04Zm14.04-49v11.54c-2.21.46-4.51,0.15-6.77,0.21-2.31.05-4.63,0.01-7.27,0.01V2435h14.04Z" transform="translate(-1590.78 -2435)"/>
</svg>
