<?xml version="1.0" encoding="utf-8"?><svg xmlns="http://www.w3.org/2000/svg" xmlns:xlink="http://www.w3.org/1999/xlink" width="79.5" height="80" viewBox="0 0 159 160">
  <metadata><?xpacket begin="﻿" id="W5M0MpCehiHzreSzNTczkc9d"?>
<x:xmpmeta xmlns:x="adobe:ns:meta/" x:xmptk="Adobe XMP Core 5.6-c140 79.160451, 2017/05/06-01:08:21        ">
   <rdf:RDF xmlns:rdf="http://www.w3.org/1999/02/22-rdf-syntax-ns#">
      <rdf:Description rdf:about=""/>
   </rdf:RDF>
</x:xmpmeta>
                                                                                                    
                                                                                                    
                                                                                                    
                                                                                                    
                                                                                                    
                                                                                                    
                                                                                                    
                                                                                                    
                                                                                                    
                                                                                                    
                                                                                                    
                                                                                                    
                                                                                                    
                                                                                                    
                                                                                                    
                                                                                                    
                                                                                                    
                                                                                                    
                                                                                                    
                                                                                                    
                           
<?xpacket end="w"?></metadata>
<defs>
    <style>
      .cls-1 {
        fill-rule: evenodd;
        fill: url(#linear-gradient);
      }
    </style>
    <linearGradient id="linear-gradient" x1="715.469" y1="1879.72" x2="715.469" y2="1719.72" gradientUnits="userSpaceOnUse">
      <stop offset="0" stop-color="#e2adb9"/>
      <stop offset="1" stop-color="#b869b4"/>
    </linearGradient>
  </defs>
  <path id="monogame" class="cls-1" d="M794.959,1788.79v-21.85a46.857,46.857,0,0,0-79.508-33.97,46.694,46.694,0,0,0-66.313,1.14,47.326,47.326,0,0,0-13.176,32.83v65.55a47.128,47.128,0,0,0,46.933,47.22h65.148a47.131,47.131,0,0,0,46.916-47.22v-31.75H701.092v28.91h65.149v2.84a18.293,18.293,0,0,1-18.2,18.31H682.9a18.29,18.29,0,0,1-18.215-18.31v-65.55a18.215,18.215,0,1,1,36.412-1.14q0.018,0.57,0,1.14v21.85h28.736v-21.85a18.216,18.216,0,1,1,36.413-1.14q0.018,0.57,0,1.14v21.85h28.718Z" transform="translate(-635.969 -1719.72)"/>
</svg>
