<?xml version="1.0" encoding="utf-8"?><svg xmlns="http://www.w3.org/2000/svg" xmlns:xlink="http://www.w3.org/1999/xlink" width="80" height="80" viewBox="0 0 160 160">
  <metadata><?xpacket begin="﻿" id="W5M0MpCehiHzreSzNTczkc9d"?>
<x:xmpmeta xmlns:x="adobe:ns:meta/" x:xmptk="Adobe XMP Core 5.6-c140 79.160451, 2017/05/06-01:08:21        ">
   <rdf:RDF xmlns:rdf="http://www.w3.org/1999/02/22-rdf-syntax-ns#">
      <rdf:Description rdf:about=""/>
   </rdf:RDF>
</x:xmpmeta>
                                                                                                    
                                                                                                    
                                                                                                    
                                                                                                    
                                                                                                    
                                                                                                    
                                                                                                    
                                                                                                    
                                                                                                    
                                                                                                    
                                                                                                    
                                                                                                    
                                                                                                    
                                                                                                    
                                                                                                    
                                                                                                    
                                                                                                    
                                                                                                    
                                                                                                    
                                                                                                    
                           
<?xpacket end="w"?></metadata>
<defs>
    <style>
      .cls-1 {
        fill-rule: evenodd;
        fill: url(#linear-gradient);
      }
    </style>
    <linearGradient id="linear-gradient" x1="2083.34" y1="1860" x2="2083.34" y2="1700" gradientUnits="userSpaceOnUse">
      <stop offset="0" stop-color="#e2adb9"/>
      <stop offset="1" stop-color="#b869b4"/>
    </linearGradient>
  </defs>
  <path id="Nintendo_Switch" data-name="Nintendo Switch" class="cls-1" d="M2037.58,1700.53a41.343,41.343,0,0,0-32.79,30.14c-1.46,5.6-1.56,8.88-1.4,52.31,0.1,39.89.14,40.81,0.8,43.9,3.68,16.59,15.47,28.42,32.23,32.33,2.18,0.49,4.97.59,22.89,0.69,18.54,0.14,20.47.1,20.96-.39s0.53-6.9.53-79.38c0-53.73-.1-79.04-0.33-79.5-0.33-.6-0.89-0.63-20.3-0.6C2044.4,1700.07,2039.66,1700.16,2037.58,1700.53Zm29.97,79.5v67.12l-13.48-.17c-12.42-.13-13.74-0.2-16.23-0.83a28.086,28.086,0,0,1-20.8-21.66c-0.73-3.35-.73-85.77-0.03-89.04a28.444,28.444,0,0,1,17.16-20.51c4.37-1.76,6.39-1.95,20.56-1.99l12.82-.03v67.11Zm-27.12-46.87a17.707,17.707,0,0,0-6.96,3.48,14.689,14.689,0,0,0-4.94,12.32,10.479,10.479,0,0,0,1.36,5.43,15.088,15.088,0,0,0,7.12,7.16,10.323,10.323,0,0,0,5.67,1.32,12.164,12.164,0,0,0,5.3-.59,14.962,14.962,0,0,0,10.3-16.57A15.214,15.214,0,0,0,2040.43,1733.16Zm56.5-32.93c-0.13.1-.23,36.01-0.23,79.8,0,72.25.03,79.57,0.53,79.77,0.9,0.33,26.6.2,29.78-.13a41.342,41.342,0,0,0,31.76-21.86,50.622,50.622,0,0,0,2.49-5.8c2.08-6.23,2.02-4.57,2.02-52.17,0-38-.07-43.67-0.53-46.08a41.13,41.13,0,0,0-33.72-33.26c-2.32-.4-5.9-0.5-17.42-0.5C2103.66,1700,2097.03,1700.1,2096.93,1700.23Zm35.38,72.15a16.216,16.216,0,0,1,11.13,10.34,17.275,17.275,0,0,1-.04,10.53,16.061,16.061,0,0,1-30.6-.79,18.988,18.988,0,0,1,.13-9.35A16.094,16.094,0,0,1,2132.31,1772.38Z" transform="translate(-2003.34 -1700)"/>
</svg>
