<?xml version="1.0" encoding="utf-8"?><svg xmlns="http://www.w3.org/2000/svg" xmlns:xlink="http://www.w3.org/1999/xlink" width="105.5" height="100" viewBox="0 0 211 200">
  <metadata><?xpacket begin="﻿" id="W5M0MpCehiHzreSzNTczkc9d"?>
<x:xmpmeta xmlns:x="adobe:ns:meta/" x:xmptk="Adobe XMP Core 5.6-c140 79.160451, 2017/05/06-01:08:21        ">
   <rdf:RDF xmlns:rdf="http://www.w3.org/1999/02/22-rdf-syntax-ns#">
      <rdf:Description rdf:about=""/>
   </rdf:RDF>
</x:xmpmeta>
                                                                                                    
                                                                                                    
                                                                                                    
                                                                                                    
                                                                                                    
                                                                                                    
                                                                                                    
                                                                                                    
                                                                                                    
                                                                                                    
                                                                                                    
                                                                                                    
                                                                                                    
                                                                                                    
                                                                                                    
                                                                                                    
                                                                                                    
                                                                                                    
                                                                                                    
                                                                                                    
                           
<?xpacket end="w"?></metadata>
<defs>
    <style>
      .cls-1 {
        fill-rule: evenodd;
        fill: url(#linear-gradient);
      }
    </style>
    <linearGradient id="linear-gradient" x1="1300.5" y1="1900" x2="1500.5" y2="1700" gradientUnits="userSpaceOnUse">
      <stop offset="0" stop-color="#e2adb9"/>
      <stop offset="1" stop-color="#b869b4"/>
    </linearGradient>
  </defs>
  <path id="PhyreEngine" class="cls-1" d="M1433.96,1817.51c-1.94,8.48,2.3,21.51,7.15,23.32,0.45,2.41.45,4.76,1.34,6.67,1.85,3.95,2.86,3.81,5.36.31,0.77-1.07,2.38-1.55,4.79-3.04-2.68,4.31-1.86,7.44.45,9.87,0.8,0.83,3.04.28,5.02,0.38,3.55,4.33,5.73,4.61,11.49.67,0.72,1.46,1.41,2.84,2.31,4.66,0.82-.63,1.82-1.41,3.07-2.39,0.54,0.9,1.08,1.78,1.58,2.62,2.62-.72,5.22-1.44,8.12-2.25-2.28,2.28-4.11,4.11-5.95,5.94,0.33,0.54.66,1.07,0.99,1.6,5-.99,10-1.99,15.46-3.08-0.79,1.74-1.38,3.05-2.06,4.53,4.36,2.92,11.13,1.58,12.92,7.15-3.7-.96-7.74-2.53-11.9-2.93-3.46-.33-7.36-0.53-9.62,3.75-0.9,1.7-4.17,2.22-4.88,3.91-1.16,2.73-3.08,3.3-5.4,3.86-0.08.02,0.06,0.98,0.03,0.5-1.74-.76-3.65-1.59-5.57-2.42-0.39,2.61-6.49,2.11-3.18,6.62-3.53-1.22-6.71-2.31-9.45-3.25-1.1,1.74-1.72,3.85-2.81,4.13-1.15.29-3.09-.83-4.07-1.9-2.48-2.71-5.14-2.35-8.4-1.91a24.4,24.4,0,0,1-9.65-.96,43.423,43.423,0,0,0-12.89-1.7c-6.88.11-14.15,2.47-20.99-.89a4.8,4.8,0,0,0-3.7-.34c-4.18,2.12-8.14.8-12.32,0.11-2.54-.42-5.32.74-8,1.11-1.89.25-3.8,0.36-5.71,0.54a2.634,2.634,0,0,0-1.22.1c-2.6,5.25-6.72,1.88-10.27,1.92-4.17.05-8.34,0.17-12.5,0.5-1.11.09-2.15,1.03-3.22,1.58,0.82,0.84,1.64,1.68,3.46,3.55-4.85-.29-8.97-0.54-12.7-0.77-0.8,2.98-1.33,4.96-1.91,7.11-3.51-2.37-8.49,1.76-10.42-3.93-0.36.04-.72,0.07-1.08,0.11-0.84,2.4-1.68,4.8-2.51,7.13-3.1-3.35-6.22-6.72-9.75-10.52-0.53-1.08-1.48-2.97-2.6-5.2-1.09.39-2.22,0.8-2.98,1.07-1.45-1.25-2.79-2.42-4.79-4.15,1.52,0.1,2.2.14,2.08,0.13,1.55-2.25,2.84-4.13,4.5-6.54-0.13-1.28-.38-3.5-0.68-6.32,1.14,0.79,1.85,1.28,2.73,1.88,0.43-.77.84-1.52,1.43-2.56,0.72,0.93,1.2,1.55,2.47,3.18,0.51-2.79.84-4.67,1.27-7,0.94-.69,2.65-1.93,4.36-3.17-0.19-.39-0.37-0.77-0.55-1.16h-5.72c1.29-1.44,2.8-3.14,4.32-4.84,0.83,0.79,1.67,1.58,3,2.85a11.589,11.589,0,0,0,1.77-3.16c0.73-3.33,1.45-6.49,4.45-8.72,0.73-.54.57-2.28,0.81-3.46-0.67-.1-1.34-0.19-2.27-0.32,5.71-2,7.35-6.76,8.74-11.98,1.16-4.36,3.13-8.5,4.73-12.71-1.26-.7-2.1-1.17-3.81-2.12,7.98-3.12,7.95-8.92,5.87-15.29,1.28-.79,2.36-1.45,3.25-2.01-1.35-1.97-2.72-3.95-4.09-5.93,0.25-.25.51-0.49,0.76-0.74,1.1,0.8,2.21,1.59,3.65,2.63,1.39-2.81,2.66-5.4,3.88-7.85,1.52-2.82,3.36-5.33,4.25-8.14,0.9-2.84.84-5.98,1.22-9.16-0.3-.72-0.82-1.94-1.34-3.16,0.34,0.15.68,0.31,1.02,0.46,3.6-5.22,7.2-10.45,11.47-16.65h-5.66c-0.06-.25-0.12-0.49-0.18-0.74,1.29-.48,2.57-0.96,4.31-1.61-1.12-.99-1.93-1.71-2.2-1.95,1.52-2.83,2.89-5.4,4.25-7.95-4.3-3.19-.49-9.83-6.34-12.14l0.91-.76c1.2,0.68,2.39,1.87,3.6,1.89,0.93,0.01,1.88-1.44,2.83-2.24-0.23-.32-0.45-0.65-0.67-0.98-0.76.36-1.51,0.72-2.16,1.02-1.12-3.2-2.24-6.43-3.46-9.94,0.41-.04,1.18-0.11,1.39-0.13-0.69-1.14-1.49-2.45-2.29-3.75,0.28-.21.55-0.41,0.83-0.61q2.535,1.95,5.07,3.92c-3.95-5.5-.43-9.44,2.83-13.37,1.38,0.1,3.33.25,6.33,0.48a41.739,41.739,0,0,1-.04,5.33c-0.52,4.92,3.84,7.09,5.77,10.62,0.4,0.74,1.38,1.17,2.22,1.84,0.91-1.81,1.79-3.54,2.66-5.27l0.59,0.12c-0.24,2.17-.49,4.34-0.76,6.79,1.01,0.06,2.01.11,3.7,0.21-1.2.97-1.87,1.51-2.44,1.98,2.6,5.66,6.45,2.24,10.05.6,0.02,0.41.04,0.83,0.06,1.24-1.68,1.04-3.37,2.07-5.05,3.1,0.2,0.43.4,0.85,0.6,1.27,5.01-2.06,10.04-4.07,15.02-6.2,3.59-1.53,3.91,1.32,4.85,3.24-3.87.39-7.71,0.6-11.48,1.23-1.38.24-4.24-.01-2.87,3.14-0.63.24-1.27,0.48-2.73,1.03,0.07,0.42-.11,2.74.72,3.2,1.31,0.73,3.31.19,5.53,0.19-1.75,2.13-3.43,4.18-5.85,7.1,3.34,0.74,5.9,1.31,8.18,1.82-0.71.1-1.83,0.26-2.95,0.42-0.1.34-.19,0.67-0.29,1,3.53,1.58,7.09,3.1,10.57,4.78a24.528,24.528,0,0,1,3.41,2.41c-0.22.44-.43,0.87-0.65,1.31-1.25-.24-2.51-0.49-3.35-0.65-1.85,1.85-3.67,3.57-5.36,5.42-0.49.55-1.06,1.76-.8,2.16,2.81,4.41.94,10.12,4.06,14.41,0.4,0.54.32,1.46,0.74,1.94,3.13,3.59,6.41,7.07,5.2,12.68,2.33-.74,4.11-1.3,6.52-2.07-0.43,1.93-.86,3.34-1.05,4.79-0.4,3.03-.04,5.25,3.19,7.27,2.24,1.41,5.37,3.31,5.59,7.17,0.1,1.84,1.35,3.75,2.5,5.31,0.53,0.71,2.08.66,3.17,0.95l0.96-.99a34.068,34.068,0,0,0,.57,5.18,24.08,24.08,0,0,0,1.92,4.21q1.665-1.62,3.32-3.24v-0.01Zm-89.08,46.14c-0.74,2.16-1.49,4.31-2.3,6.67,1.89,0.29,2.86.49,3.85,0.57,0.9,0.08,1.81.02,3.07,0.02-0.41-1.71-.72-3.03-1.21-5.09,3.68,4.57,5.72,5.53,8.31,5.11,5.75-.94,11.54-2.16,17.33-2.29,6.81-.15,13.54.53,19.51-3.93,0.8-.6,2.93.52,4.41,0.96,1.15,0.35,2.22,1.17,3.38,1.28,3.43,0.34,6.88.44,10.32,0.62a8.021,8.021,0,0,0,2.49.03c4.11-1.2,8.19-2.51,12.43-3.82-4.23,2.28-6.58-3.87-11.03-2.18a2.109,2.109,0,0,1-1.79-.95c-1.89-4.01-4.43-2.98-7.24-1.2-0.59.37-1.51,0.22-3.21,0.42l2.85-2.28c-0.07-.37-0.15-0.75-0.22-1.13-3.55-.18-7.18.07-10.62-0.64a14.175,14.175,0,0,0-10.48,1.45c-1.31.74-3.25,0.58-4.88,0.47-2.49-.18-5.02-1.22-7.42-0.93-7.7.95-15.35,2.31-23.01,3.57-1.99.33-4.51,0.12-4.53,3.28-4.42-2.63-14.96-.18-16.86,4.74,2.01-.47,3.51-0.75,4.97-1.18C1336.97,1866.06,1340.92,1864.84,1344.88,1863.65Zm-5.93-48.67c-0.36,4.42-.65,8.13-0.98,11.84a1.652,1.652,0,0,1-.44,1.14c-3.41,1.87-1.38,4.67-1.34,7.17a14.582,14.582,0,0,1-.53,4.95c-1.47,4.23-4.76.91-6.71,1.27-0.37,2.19-.68,4.07-1.03,6.21,1.77,0.31,4.19.74,6.6,1.17-2.68,1.72-7.71-1.92-7.94,4.05-0.16,4.01,3.17,4.3,6.37,5.21-0.17-1.42-.3-2.41-0.4-3.2h25.22c-0.2-1.36-.31-2.15-0.54-3.66h22.54c-0.46-.76-0.96-1.57-1.6-2.62,2.33,0.29,4.56,1.16,6.47.7,3.94-.95,7.99-1.52,11.57.07a49.375,49.375,0,0,0,17.29,3.8c4.18,0.24,8.34-.47,12.11,2.11,0.83,0.57,2.03.61,4.23,1.21-2.37-4.59-4.11-8.34-6.2-11.89-1.53-2.6-4.34-4.71-5.13-7.46-1.31-4.57-3.94-7.13-8.57-8.44,0.81-.96,1.44-1.72,2.01-2.4-1.04-1.14-1.87-2.03-2.66-2.89,0.75-.79,1.33-1.4,1.07-1.13-1.27-2.82-1.77-5.05-3.07-6.59-3.6-4.26-7.79-8.05-11.26-12.42-1.89-2.38-7.6-2.83-4.62-8.15,1.73,1.12.36,6.12,5.38,3.83-3.19-5.16-6.07-10.22-9.33-15.01-2.5-3.68-6.53-6.66-7.87-10.64-0.93-2.77-.77-5.85-3.89-8.57-0.3,8.83-2.49,17.11.7,25.62-1.05.53-2.77,1.38-3.89,1.93,0.62-9.26,1.23-18.32,1.86-27.64-1.81.43-2.76,0.65-3.83,0.9,0.39-3.34.73-6.25,1.16-9.88-1.76-2.62-5.06-2.8-8.04-1.03-1.18.7-1.14,3.49-1.73,5.6-0.76-.16-2.23-0.47-3.76-0.79-1.45,2.92.28,7.43-4.1,9.17a1.284,1.284,0,0,0-.22.79c-0.56,4.97-3.08,9.77-1.26,14.95a3.435,3.435,0,0,1-.79,1.1c-0.37-1.41-.63-2.42-0.9-3.43h-1.31l-1.17,11.58c-2.9,7.84-10.4,14.36-7.3,24.51C1340.6,1817.28,1340.07,1816.55,1338.95,1814.98Zm58.52-65.62c-2.39-2.06-3.79-3.62-5.52-4.6-1.02-.59-2.56-0.25-3.87-0.33a23.236,23.236,0,0,0,.31,3.75,33.188,33.188,0,0,0,1.52,4.04C1392.05,1751.41,1394.16,1750.61,1397.47,1749.36Zm-4.31,7.49c2.59-2.48,4.41-4.22,7.02-6.72-3.13.94-5.2,1.55-7.34,2.2C1392.93,1753.64,1393.01,1754.7,1393.16,1756.85Zm-24.86-8.58c-2.16,1.21-3.98,2.22-5.93,3.31C1366.4,1753.37,1368.53,1752.01,1368.3,1748.27Z" transform="translate(-1295 -1700)"/>
</svg>
