<?xml version="1.0" encoding="UTF-8"?>
<!DOCTYPE svg PUBLIC "-//W3C//DTD SVG 1.0//EN" "http://www.w3.org/TR/2001/REC-SVG-20010904/DTD/svg10.dtd">
<!-- Creator: CorelDRAW X8 -->
<svg xmlns="http://www.w3.org/2000/svg" xml:space="preserve" width="255px" height="255px" version="1.0" style="shape-rendering:geometricPrecision; text-rendering:geometricPrecision; image-rendering:optimizeQuality; fill-rule:evenodd; clip-rule:evenodd"
viewBox="0 0 255 255"
 xmlns:xlink="http://www.w3.org/1999/xlink">
 <defs>
  <style type="text/css">
   <![CDATA[
    .fil0 {fill:url(#id0)}
   ]]>
  </style>
  <linearGradient id="id0" gradientUnits="userSpaceOnUse" x1="87.7355" y1="202.899" x2="150.438" y2="51.1469">
   <stop offset="0" style="stop-opacity:1; stop-color:#E2ADB9"/>
   <stop offset="1" style="stop-opacity:1; stop-color:#B869B4"/>
  </linearGradient>
 </defs>
 <g id="Layer_x0020_1">
  <metadata id="CorelCorpID_0Corel-Layer"/>
  <path class="fil0" d="M118 51c0,0 -29,8 -55,36 -26,27 -29,47 -29,61 6,-10 41,-63 49,-38l0 61c0,0 -1,8 -13,5 4,7 23,25 58,28 8,-8 18,-19 18,-19l18 14c0,0 31,-20 44,-50 -12,8 -26,25 -33,13l0 -74c0,0 19,-28 22,-29 -8,1 -34,10 -48,27 -3,-4 -14,-4 -14,-4 0,0 8,7 8,14 0,6 0,59 0,66 -5,6 -12,9 -16,9 -9,0 -12,-4 -14,-7l0 -78c0,0 -5,4 -8,-2 -4,-6 -4,-19 13,-33zm10 204c-71,0 -128,-57 -128,-127 0,-71 57,-128 128,-128 70,0 127,57 127,128 0,70 -57,127 -127,127zm0 -6c-68,0 -122,-54 -122,-121 0,-68 54,-122 122,-122 67,0 121,54 121,122 0,67 -54,121 -121,121z"/>
 </g>
</svg>
