<?xml version="1.0" encoding="UTF-8"?>
<!DOCTYPE svg PUBLIC "-//W3C//DTD SVG 1.0//EN" "http://www.w3.org/TR/2001/REC-SVG-20010904/DTD/svg10.dtd">
<!-- Creator: CorelDRAW X8 -->
<svg xmlns="http://www.w3.org/2000/svg" xml:space="preserve" width="255px" height="255px" version="1.0" style="shape-rendering:geometricPrecision; text-rendering:geometricPrecision; image-rendering:optimizeQuality; fill-rule:evenodd; clip-rule:evenodd"
viewBox="0 0 255 255"
 xmlns:xlink="http://www.w3.org/1999/xlink">
 <defs>
  <style type="text/css">
   <![CDATA[
    .fil0 {fill:url(#id0)}
   ]]>
  </style>
  <linearGradient id="id0" gradientUnits="userSpaceOnUse" x1="36.9889" y1="126.994" x2="201.185" y2="126.994">
   <stop offset="0" style="stop-opacity:1; stop-color:#E2ADB9"/>
   <stop offset="1" style="stop-opacity:1; stop-color:#B869B4"/>
  </linearGradient>
 </defs>
 <g id="Layer_x0020_1">
  <metadata id="CorelCorpID_0Corel-Layer"/>
  <path class="fil0" d="M128 42l-50 0 -44 0c-19,0 -34,15 -34,34l0 27 0 76c0,18 15,33 34,33l44 0c13,0 25,-8 30,-20 0,0 0,0 0,0l12 -22c1,-3 4,-5 8,-5 3,0 6,2 7,5l12 22c0,0 0,0 0,0 5,12 17,20 30,20l44 0c19,0 34,-15 34,-33l0 -76 0 -27c0,-19 -15,-34 -34,-34l-44 0 -49 0zm85 87c0,-15 -11,-27 -26,-27 -15,0 -26,12 -26,27 0,14 11,26 26,26 15,0 26,-12 26,-26zm-171 0c0,-15 11,-27 26,-27 15,0 26,12 26,27 0,14 -11,26 -26,26 -15,0 -26,-12 -26,-26z"/>
 </g>
</svg>
