<?xml version="1.0" encoding="UTF-8"?>
<!DOCTYPE svg PUBLIC "-//W3C//DTD SVG 1.0//EN" "http://www.w3.org/TR/2001/REC-SVG-20010904/DTD/svg10.dtd">
<!-- Creator: CorelDRAW X8 -->
<svg xmlns="http://www.w3.org/2000/svg" xml:space="preserve" width="255px" height="255px" version="1.0" style="shape-rendering:geometricPrecision; text-rendering:geometricPrecision; image-rendering:optimizeQuality; fill-rule:evenodd; clip-rule:evenodd"
viewBox="0 0 255 255"
 xmlns:xlink="http://www.w3.org/1999/xlink">
 <defs>
  <style type="text/css">
   <![CDATA[
    .fil0 {fill:url(#id0)}
   ]]>
  </style>
  <linearGradient id="id0" gradientUnits="userSpaceOnUse" x1="87.752" y1="202.898" x2="150.45" y2="51.1457">
   <stop offset="0" style="stop-opacity:1; stop-color:#E2ADB9"/>
   <stop offset="1" style="stop-opacity:1; stop-color:#B869B4"/>
  </linearGradient>
 </defs>
 <g id="Layer_x0020_1">
  <metadata id="CorelCorpID_0Corel-Layer"/>
  <path class="fil0" d="M38 37l0 0 0 0c-24,24 -38,56 -38,90 0,0 0,0 0,0 0,1 0,1 0,1 0,28 9,55 26,77 0,0 1,0 1,0 0,0 0,0 0,-1 -10,-30 40,-103 66,-133 0,0 0,0 0,-1 0,0 0,0 -1,0 -43,-43 -54,-33 -54,-33m179 0l0 0 0 0c24,24 38,56 38,90 0,0 0,0 0,0 0,1 0,1 0,1 0,28 -9,55 -26,77 0,0 0,0 -1,0 0,0 0,0 0,-1 10,-30 -40,-103 -65,-133 -1,0 -1,0 -1,-1 0,0 0,0 1,0 43,-43 54,-33 54,-33m-89 -37c25,0 46,7 66,19 0,0 0,0 0,0 0,1 0,1 0,1 -25,-6 -63,15 -66,18 0,0 0,0 0,0 -1,0 -1,0 -1,0 -9,-6 -44,-24 -66,-18 0,0 0,0 0,-1 0,0 0,0 0,0 0,0 0,0 0,0 19,-12 41,-19 67,-19m0 102c0,0 0,0 0,0 38,29 103,101 83,121l0 0 0 0 0 0c-23,21 -53,32 -83,32 0,0 0,0 0,0 -1,0 -1,0 -1,0 -30,0 -60,-11 -83,-32l0 0 0 0c-20,-20 45,-92 83,-121 0,0 0,0 1,0m0 0l0 0 0 0z"/>
 </g>
</svg>
