<?xml version="1.0" encoding="utf-8"?><svg xmlns="http://www.w3.org/2000/svg" xmlns:xlink="http://www.w3.org/1999/xlink" width="115" height="64.72" viewBox="0 0 230 129.44">
  <metadata><?xpacket begin="﻿" id="W5M0MpCehiHzreSzNTczkc9d"?>
<x:xmpmeta xmlns:x="adobe:ns:meta/" x:xmptk="Adobe XMP Core 5.6-c140 79.160451, 2017/05/06-01:08:21        ">
   <rdf:RDF xmlns:rdf="http://www.w3.org/1999/02/22-rdf-syntax-ns#">
      <rdf:Description rdf:about=""/>
   </rdf:RDF>
</x:xmpmeta>
                                                                                                    
                                                                                                    
                                                                                                    
                                                                                                    
                                                                                                    
                                                                                                    
                                                                                                    
                                                                                                    
                                                                                                    
                                                                                                    
                                                                                                    
                                                                                                    
                                                                                                    
                                                                                                    
                                                                                                    
                                                                                                    
                                                                                                    
                                                                                                    
                                                                                                    
                                                                                                    
                           
<?xpacket end="w"?></metadata>
<defs>
    <style>
      .cls-1 {
        fill-rule: evenodd;
        fill: url(#linear-gradient);
      }
    </style>
    <linearGradient id="linear-gradient" x1="1336.28" y1="2505" x2="1465.72" y2="2375.56" gradientUnits="userSpaceOnUse">
      <stop offset="0" stop-color="#e2adb9"/>
      <stop offset="1" stop-color="#b869b4"/>
    </linearGradient>
  </defs>
  <path id="android" class="cls-1" d="M1454.02,2472.29a9.605,9.605,0,1,1,9.61-9.6h0a9.6,9.6,0,0,1-9.61,9.6m-105.84,0a9.605,9.605,0,1,1,9.61-9.6h0a9.6,9.6,0,0,1-9.61,9.6m109.24-57.62,19.23-33.11a3.97,3.97,0,0,0-6.9-3.93c0,0.01-.01.02-0.01,0.03l-19.43,33.51a117.433,117.433,0,0,0-49.16-10.6,119.541,119.541,0,0,0-49.27,10.5l-19.42-33.51a3.967,3.967,0,0,0-6.91,3.9l19.12,33.11A113.15,113.15,0,0,0,1286,2505h230a112.572,112.572,0,0,0-58.58-90.33" transform="translate(-1286 -2375.56)"/>
</svg>
