<?xml version="1.0" encoding="utf-8"?><svg xmlns="http://www.w3.org/2000/svg" xmlns:xlink="http://www.w3.org/1999/xlink" width="85" height="100" viewBox="0 0 170 200">
  <metadata><?xpacket begin="﻿" id="W5M0MpCehiHzreSzNTczkc9d"?>
<x:xmpmeta xmlns:x="adobe:ns:meta/" x:xmptk="Adobe XMP Core 5.6-c140 79.160451, 2017/05/06-01:08:21        ">
   <rdf:RDF xmlns:rdf="http://www.w3.org/1999/02/22-rdf-syntax-ns#">
      <rdf:Description rdf:about=""/>
   </rdf:RDF>
</x:xmpmeta>
                                                                                                    
                                                                                                    
                                                                                                    
                                                                                                    
                                                                                                    
                                                                                                    
                                                                                                    
                                                                                                    
                                                                                                    
                                                                                                    
                                                                                                    
                                                                                                    
                                                                                                    
                                                                                                    
                                                                                                    
                                                                                                    
                                                                                                    
                                                                                                    
                                                                                                    
                                                                                                    
                           
<?xpacket end="w"?></metadata>
<defs>
    <style>
      .cls-1 {
        fill-rule: evenodd;
        fill: url(#linear-gradient);
      }
    </style>
    <linearGradient id="linear-gradient" x1="2084" y1="1250" x2="2084" y2="1050" gradientUnits="userSpaceOnUse">
      <stop offset="0" stop-color="#e2adb9"/>
      <stop offset="1" stop-color="#b869b4"/>
    </linearGradient>
  </defs>
  <path id="linux" class="cls-1" d="M2080.97,1098.87a0.646,0.646,0,0,1-.66.66h-0.66c-0.67,0-.67-0.66-1.33-1.32a2.347,2.347,0,0,1-.66-1.33c0-.66,0-0.66.66-0.66l1.33,0.66a3.516,3.516,0,0,1,1.32,1.99m-11.92-6.62c0-3.31-1.33-5.3-3.31-5.3a0.646,0.646,0,0,1-.66.66v1.33h1.98c0,1.32.66,1.98,0.66,3.31h1.33m23.18-3.31c1.33,0,1.99,1.32,2.65,3.31h1.33a2.421,2.421,0,0,1-.67-1.99,2.455,2.455,0,0,0-.66-1.99,3.485,3.485,0,0,0-1.99-1.32,2.3,2.3,0,0,1-1.32.66c0,0.66.66,0.66,0.66,1.33m-19.87,10.59c-0.66,0-.66,0-0.66-0.66a2.445,2.445,0,0,1,.66-1.99,2.9,2.9,0,0,0,1.99-.66,0.646,0.646,0,0,1,.66.66c0,0.66-.66,1.33-1.99,2.65h-0.66m-7.28-.66c-2.65-1.33-3.32-3.31-3.32-6.62,0-1.99,0-3.31,1.33-4.64a3.644,3.644,0,0,1,3.31-1.98c1.32,0,1.99.66,3.31,1.98a19.476,19.476,0,0,1,1.33,5.96v1.33h0.66v-0.67c0.66,0,.66-1.32.66-3.97,0-1.99,0-3.97-1.32-5.96s-2.65-3.31-5.3-3.31a4.974,4.974,0,0,0-4.64,3.31,15.636,15.636,0,0,0-1.59,7.95,10.836,10.836,0,0,0,3.58,7.94c0.66-.66,1.32-0.66,1.99-1.32m82.79,93.37c0.66,0,.66-0.27.66-0.86,0-1.46-.66-3.18-2.65-5.1-1.98-1.99-5.3-3.25-9.27-3.78-0.66-.06-1.33-0.06-1.33-0.06a4.245,4.245,0,0,0-1.32-.14c-0.66-.06-1.99-0.19-2.65-0.33a52.476,52.476,0,0,0,2.65-16.35c0-6.62-1.32-11.26-3.97-15.23s-5.3-5.96-8.61-6.62a1.311,1.311,0,0,0-.67,1.32,16.519,16.519,0,0,1,8.61,7.95,31.466,31.466,0,0,1,2.65,13.24,46.221,46.221,0,0,1-3.31,16.22c-2.65,1.06-5.3,3.51-7.28,7.35,0,0.6,0,.93.66,0.93a7.971,7.971,0,0,0,1.32-1.72c1.33-1.13,1.99-2.25,3.31-3.38a9.921,9.921,0,0,1,5.3-1.72,22.427,22.427,0,0,1,8.61,1.39c2.65,0.86,3.98,1.79,4.64,2.85,0.66,0.99,1.32,1.92,1.99,2.78a1.519,1.519,0,0,0,.66,1.26m-60.94-96.02c-0.66-.66-0.66-1.99-0.66-3.31,0-2.65,0-3.97,1.33-5.96a5.722,5.722,0,0,1,3.97-1.99c1.99,0,3.31,1.33,4.64,2.65,0.66,1.99,1.32,3.31,1.32,5.3q0,4.965-3.97,5.96a2.3,2.3,0,0,0,1.32.66c1.33,0,1.99.66,3.31,1.33,0.67-3.98,1.33-6.63,1.33-9.94,0-3.97-.66-6.62-1.99-8.61a8.515,8.515,0,0,0-6.62-2.64,10.681,10.681,0,0,0-5.96,1.98c-1.33,1.99-1.99,3.31-1.99,5.3a18.277,18.277,0,0,0,1.99,8.61c0.66,0,1.32.66,1.98,0.66m7.95,10.6c-8.61,5.96-15.23,8.6-20.53,8.6a21.046,21.046,0,0,1-13.25-5.29,14.51,14.51,0,0,0,1.99,3.31l3.97,3.97a13.073,13.073,0,0,0,9.28,3.97c4.63,0,9.93-2.65,16.55-7.28l5.97-3.97c1.32-1.33,2.64-2.65,2.64-4.64,0-.66,0-1.32-0.66-1.32-0.66-1.33-3.97-3.31-10.6-5.3-5.96-2.65-10.59-3.97-13.24-3.97q-2.985,0-9.94,3.97c-3.97,2.65-6.62,5.3-6.62,7.95a8.168,8.168,0,0,1,1.32,1.98c3.98,3.31,7.95,5.3,11.93,5.3,5.29,0,11.92-2.65,20.53-9.27v1.32a0.653,0.653,0,0,1,.66.67m15.24,133.76a14.14,14.14,0,0,0,16.55,6.88,8.633,8.633,0,0,0,3.32-1.25c0.66-.47,1.32-0.93,1.98-1.46a7.7,7.7,0,0,0,1.99-1.13l11.26-9.73a44.651,44.651,0,0,1,8.61-5.56,58.332,58.332,0,0,1,6.62-3.25,11.777,11.777,0,0,0,4.64-2.38,6.863,6.863,0,0,0,1.32-3.84c0-1.92-1.32-3.38-2.64-4.44a13.407,13.407,0,0,0-3.98-2.25c-1.32-.46-2.65-1.52-4.64-3.31a18.036,18.036,0,0,1-3.31-7.22l-0.66-3.84c-0.66-1.79-.66-3.11-1.32-3.84,0-.2,0-0.27-0.67-0.27a3.655,3.655,0,0,0-2.65,1.73c-1.32,1.12-2.64,2.38-3.97,3.7-0.66,1.33-2.65,2.52-3.97,3.65a12.011,12.011,0,0,1-5.3,1.72c-5.3,0-7.95-1.46-9.94-4.31a24.481,24.481,0,0,1-2.65-7.35c-1.32-1.12-1.98-1.72-3.31-1.72-3.31,0-4.64,3.45-4.64,10.4v20.59a21.138,21.138,0,0,0-.66,3.98,23.291,23.291,0,0,0-.66,7.01l-1.32,7.35v0.12m-96.05-3.51a108.85,108.85,0,0,1,21.27,5.77c8.01,2.92,12.91,4.44,14.7,4.44,4.64,0,8.48-2.05,11.66-6.02a9.854,9.854,0,0,0,.66-4.53q0-9.39-11.33-23.77l-4.5-6.03a63.2,63.2,0,0,1-3.51-5.76,57.341,57.341,0,0,0-3.64-5.96,18.023,18.023,0,0,0-4.04-4.57,13.666,13.666,0,0,0-5.9-3.04c-2.78.53-4.7,1.45-5.63,2.71a8.062,8.062,0,0,0-1.59,4.11,3.907,3.907,0,0,1-1.26,2.78,12.293,12.293,0,0,1-3.31,1.06c-0.33,0-.93,0-1.79.06h-1.79c-3.51,0-5.89.4-7.15,1.06a9.761,9.761,0,0,0-2.52,6.43,30.372,30.372,0,0,0,.8,5.36,29.594,29.594,0,0,1,.79,5.83,15.426,15.426,0,0,1-2.45,8.14c-1.65,2.85-2.51,4.97-2.51,6.48,0.66,2.57,5.03,4.38,13.04,5.43m22.06-60.19c0-4.57,1.19-9.6,3.64-15.56,2.39-5.96,4.77-9.93,7.09-12.58-0.13-.66-0.46-0.66-0.99-0.66l-0.66-.67c-1.93,1.99-4.24,6.63-7.03,13.25-2.78,5.96-4.23,11.45-4.23,15.49a15.062,15.062,0,0,0,2.05,7.82c1.46,2.18,4.97,5.36,10.53,9.4l7.02,4.57c7.49,6.49,11.46,10.99,11.46,13.64,0,1.39-.66,2.78-2.65,4.3a6.265,6.265,0,0,1-4.64,2.39c-0.13,0-.2.13-0.2,0.46,0,0.07.67,1.39,2.06,3.98,2.78,3.77,8.74,5.62,16.69,5.62,14.57,0,25.83-5.96,34.44-17.88,0-3.31,0-5.36-.66-6.22v-2.45c0-4.3.66-7.55,1.99-9.67s2.65-3.11,4.63-3.11a6.535,6.535,0,0,1,3.98,1.46,100.652,100.652,0,0,0,.66-13.51c0-6.03,0-10.99-1.33-15.63a34.688,34.688,0,0,0-3.31-9.93c-1.32-1.99-2.65-3.98-3.97-5.96s-1.99-3.98-3.31-5.96a28.21,28.21,0,0,1-1.33-7.95c-1.99-3.31-3.31-6.62-5.3-9.93-1.32-3.31-2.65-6.62-3.97-9.27l-5.96,4.63c-6.63,4.64-11.92,6.63-16.56,6.63-3.97,0-7.29-.67-9.27-3.32l-3.98-3.31a17.325,17.325,0,0,1-1.98,7.29l-4.18,7.94c-1.85,4.64-2.85,7.29-3.04,9.27a13.593,13.593,0,0,1-.6,2.65l-4.97,9.94c-5.36,9.93-8.08,19.13-8.08,26.75a28.234,28.234,0,0,0,.4,4.7,9.814,9.814,0,0,1-4.44-8.61m47.43,62.64q-12.93,0-19.88,3.48v-0.2c-3.31,3.98-7.02,6.03-12.18,6.03-3.25,0-8.35-1.26-15.24-3.78a178.7,178.7,0,0,0-18.48-5.41c-0.53-.16-1.72-0.38-3.64-0.69-1.85-.29-3.58-0.6-5.1-0.9a38.617,38.617,0,0,1-4.7-1.36,11.6,11.6,0,0,1-3.98-2.03,3.77,3.77,0,0,1-1.36-2.83,9.559,9.559,0,0,1,.68-3.4c0.42-.73.88-1.45,1.35-2.12a12.4,12.4,0,0,0,1.12-2.05,9.711,9.711,0,0,0,.93-1.85,8.341,8.341,0,0,0,.66-1.92,10.569,10.569,0,0,0,.27-1.99c0-.66-0.27-2.65-0.8-6.16a59.2,59.2,0,0,1-.79-6.55c0-2.92.66-5.24,2.12-6.89s2.85-2.52,4.3-2.52h7.62a6.811,6.811,0,0,0,2.91-1.12c0.47-1.06.86-1.92,1.13-2.72,0.33-.79.46-1.39,0.6-1.65,0.13-.4.26-0.8,0.39-1.13a9.862,9.862,0,0,1,1.06-1.52,3.992,3.992,0,0,1-.79-2.58,6.9,6.9,0,0,1,.13-1.79c0-2.39,1.13-5.76,3.51-10.2l2.32-4.17a93.427,93.427,0,0,0,4.44-8.87,87.268,87.268,0,0,0,3.64-11.92q1.59-6.96,7.55-13.91l4.97-5.96a46.8,46.8,0,0,0,6.95-9.93,21.312,21.312,0,0,0,1.92-8.61c0-1.33-.33-5.3-1.06-11.92-0.66-6.62-.99-13.24-0.99-19.2a42.591,42.591,0,0,1,1.26-11.26,23.44,23.44,0,0,1,4.64-9.27,17.674,17.674,0,0,1,8.61-6.62,43.859,43.859,0,0,1,13.91-1.99,18.423,18.423,0,0,1,5.96.66,22.787,22.787,0,0,1,7.94,1.99,27.452,27.452,0,0,1,7.29,4.63c2.65,1.99,4.64,5.3,6.62,8.61a64.653,64.653,0,0,1,3.32,13.25c0.66,3.31.66,6.62,1.32,11.25,0,3.98.66,6.63,0.66,8.61,0.66,1.99.66,4.64,1.33,7.95,0.66,2.65,1.32,5.3,2.65,7.28a49.539,49.539,0,0,0,4.63,7.95c1.99,3.31,4.64,6.62,7.29,10.59a66.467,66.467,0,0,1,13.25,21.19,55.677,55.677,0,0,1,5.29,24.44,45.165,45.165,0,0,1-1.98,13.31,2.925,2.925,0,0,1,2.65,1.45c0.66,0.93,1.32,2.92,1.98,6.03l0.67,4.9a7.744,7.744,0,0,0,3.31,4.04,14.671,14.671,0,0,0,4.63,2.98,21.269,21.269,0,0,1,4.64,2.78,5.889,5.889,0,0,1,1.99,4.17,6.428,6.428,0,0,1-1.99,5.1,10.337,10.337,0,0,1-4.64,2.85c-1.32.66-3.97,1.99-7.94,3.85a71.884,71.884,0,0,0-9.94,7.15l-6.62,5.64a36.493,36.493,0,0,1-7.29,5.56,14.5,14.5,0,0,1-7.28,1.79l-4.64-.53c-5.3-1.39-8.61-4.04-10.6-8.08a227.586,227.586,0,0,0-24.5-1.92" transform="translate(-1999 -1050)"/>
</svg>
