<?xml version="1.0" encoding="utf-8"?><svg xmlns="http://www.w3.org/2000/svg" xmlns:xlink="http://www.w3.org/1999/xlink" width="128" height="30" viewBox="0 0 256 60">
  <metadata><?xpacket begin="﻿" id="W5M0MpCehiHzreSzNTczkc9d"?>
<x:xmpmeta xmlns:x="adobe:ns:meta/" x:xmptk="Adobe XMP Core 5.6-c140 79.160451, 2017/05/06-01:08:21        ">
   <rdf:RDF xmlns:rdf="http://www.w3.org/1999/02/22-rdf-syntax-ns#">
      <rdf:Description rdf:about=""/>
   </rdf:RDF>
</x:xmpmeta>
                                                                                                    
                                                                                                    
                                                                                                    
                                                                                                    
                                                                                                    
                                                                                                    
                                                                                                    
                                                                                                    
                                                                                                    
                                                                                                    
                                                                                                    
                                                                                                    
                                                                                                    
                                                                                                    
                                                                                                    
                                                                                                    
                                                                                                    
                                                                                                    
                                                                                                    
                                                                                                    
                           
<?xpacket end="w"?></metadata>
<defs>
    <style>
      .cls-1 {
        fill-rule: evenodd;
        fill: url(#linear-gradient);
      }
    </style>
    <linearGradient id="linear-gradient" x1="1370" y1="1179.97" x2="1430" y2="1119.97" gradientUnits="userSpaceOnUse">
      <stop offset="0" stop-color="#e2adb9"/>
      <stop offset="1" stop-color="#b869b4"/>
    </linearGradient>
  </defs>
  <path id="mac_os" data-name="mac os" class="cls-1" d="M1272,1179.01h10.04v-26.12c0-5.15,3.38-8.89,8.22-8.89,4.68,0,7.58,2.93,7.58,7.68v27.33h9.76v-26.36c0-5.11,3.3-8.65,8.14-8.65,4.92,0,7.66,2.97,7.66,8.21v26.8h10.04v-29.26c0-8.53-5.52-14.21-13.95-14.21-6.17,0-11.25,3.3-13.3,8.58h-0.25c-1.57-5.48-5.88-8.58-11.93-8.58a12.558,12.558,0,0,0-12.17,8.21h-0.21v-7.4H1272v42.66h0Zm83.41-6.88c-4.35,0-7.26-2.21-7.26-5.72,0-3.38,2.79-5.55,7.62-5.87l9.88-.61v3.26c0,5.16-4.55,8.94-10.24,8.94h0Zm-3.02,7.57c5.48,0,10.84-2.86,13.3-7.49h0.2v6.8h9.68v-29.38c0-8.57-6.9-14.17-17.5-14.17-10.88,0-17.7,5.72-18.14,13.69h9.31c0.65-3.54,3.67-5.84,8.43-5.84,4.96,0,7.98,2.58,7.98,7.04v3.06l-11.29.65c-10.4.64-16.24,5.19-16.24,12.76,0,7.68,6,12.87,14.27,12.87v0.01Zm67.24-28.14c-0.68-8.97-7.66-16.1-18.94-16.1-12.42,0-20.48,8.58-20.48,22.22,0,13.84,8.06,22.17,20.56,22.17,10.72,0,18.1-6.27,18.9-15.81h-9.47c-0.93,4.83-4.23,7.72-9.31,7.72-6.37,0-10.48-5.15-10.48-14.08,0-8.78,4.07-14.09,10.4-14.09,5.36,0,8.54,3.42,9.35,7.97h9.47Zm31.01-31.59c-16.98,0-27.62,11.55-27.62,30.02s10.64,29.99,27.62,29.99c16.93,0,27.57-11.51,27.57-29.99S1467.57,1119.97,1450.64,1119.97Zm0,8.85c10.36,0,16.97,8.21,16.97,21.17,0,12.92-6.61,21.13-16.97,21.13-10.4,0-16.98-8.21-16.98-21.13,0-12.96,6.58-21.17,16.98-21.17h0Zm31.81,33.85c0.44,10.71,9.23,17.31,22.61,17.31,14.07,0,22.94-6.93,22.94-17.95,0-8.66-5-13.53-16.81-16.22l-6.69-1.53c-7.14-1.69-10.08-3.95-10.08-7.81,0-4.83,4.43-8.05,11-8.05,6.66,0,11.21,3.26,11.7,8.69h9.91c-0.24-10.22-8.71-17.14-21.52-17.14-12.66,0-21.65,6.96-21.65,17.27,0,8.29,5.08,13.44,15.8,15.89l7.54,1.77c7.33,1.73,10.32,4.15,10.32,8.33,0,4.83-4.88,8.3-11.89,8.3-7.1,0-12.46-3.51-13.11-8.86h-10.07Z" transform="translate(-1272 -1119.97)"/>
</svg>
