<?xml version="1.0" encoding="UTF-8"?>
<!DOCTYPE svg PUBLIC "-//W3C//DTD SVG 1.0//EN" "http://www.w3.org/TR/2001/REC-SVG-20010904/DTD/svg10.dtd">
<!-- Creator: CorelDRAW X8 -->
<svg xmlns="http://www.w3.org/2000/svg" xml:space="preserve" width="340px" height="255px" version="1.0" style="shape-rendering:geometricPrecision; text-rendering:geometricPrecision; image-rendering:optimizeQuality; fill-rule:evenodd; clip-rule:evenodd"
viewBox="0 0 340 255"
 xmlns:xlink="http://www.w3.org/1999/xlink">
 <defs>
  <style type="text/css">
   <![CDATA[
    .fil0 {fill:url(#id0)}
   ]]>
  </style>
  <linearGradient id="id0" gradientUnits="userSpaceOnUse" x1="118.693" y1="202.896" x2="199.934" y2="51.1454">
   <stop offset="0" style="stop-opacity:1; stop-color:#E2ADB9"/>
   <stop offset="1" style="stop-opacity:1; stop-color:#B869B4"/>
  </linearGradient>
 </defs>
 <g id="Layer_x0020_1">
  <metadata id="CorelCorpID_0Corel-Layer"/>
  <path class="fil0" d="M332 195c-6,8 -22,14 -22,14l-117 42 0 -31 86 -31c10,-3 11,-8 3,-11 -7,-2 -22,-2 -32,2l-57 20 0 -32 3 -1c0,0 17,-6 40,-9 23,-2 52,1 75,9 25,8 28,20 21,28l0 0zm-128 -53l0 -80c0,-9 -2,-18 -11,-20 -6,-2 -11,4 -11,13l0 200 -53 -17 0 -238c22,4 56,14 74,20 45,16 61,35 61,79 0,43 -27,59 -60,43l0 0zm-174 75c-26,-7 -31,-23 -19,-31 11,-9 30,-15 30,-15l77 -27 0 31 -55 20c-10,3 -12,8 -4,11 8,3 23,2 32,-2l27 -9 0 28c-2,0 -3,0 -5,1 -27,4 -55,2 -83,-7l0 0z"/>
 </g>
</svg>
