<svg xmlns="http://www.w3.org/2000/svg" width="40" height="40" viewBox="0 0 80 80">
  <metadata><?xpacket begin="﻿" id="W5M0MpCehiHzreSzNTczkc9d"?>
<x:xmpmeta xmlns:x="adobe:ns:meta/" x:xmptk="Adobe XMP Core 5.6-c140 79.160451, 2017/05/06-01:08:21        ">
   <rdf:RDF xmlns:rdf="http://www.w3.org/1999/02/22-rdf-syntax-ns#">
      <rdf:Description rdf:about=""/>
   </rdf:RDF>
</x:xmpmeta>
                                                                                                    
                                                                                                    
                                                                                                    
                                                                                                    
                                                                                                    
                                                                                                    
                                                                                                    
                                                                                                    
                                                                                                    
                                                                                                    
                                                                                                    
                                                                                                    
                                                                                                    
                                                                                                    
                                                                                                    
                                                                                                    
                                                                                                    
                                                                                                    
                                                                                                    
                                                                                                    
                           
<?xpacket end="w"?></metadata>
<defs>
    <style>
      .cls-1 {
        fill: #7b80a4;
        fill-rule: evenodd;
      }
    </style>
  </defs>
  <path id="youtube" class="cls-1" d="M2638,8760a40,40,0,1,0,40,40A40,40,0,0,0,2638,8760Zm14.11,19.25a3.688,3.688,0,0,0-2.6-2.65c-2.3-.63-11.51-0.63-11.51-0.63s-9.21,0-11.51.63a3.719,3.719,0,0,0-2.61,2.65,43.092,43.092,0,0,0,0,14.45,3.719,3.719,0,0,0,2.61,2.65c2.3,0.63,11.51.63,11.51,0.63s9.21,0,11.51-.63a3.688,3.688,0,0,0,2.6-2.65A42.407,42.407,0,0,0,2652.11,8779.25Zm-17.06,11.73v-9.01l7.66,4.51Zm-16.66,32.39a3.254,3.254,0,0,1-1.25-1.87,12.614,12.614,0,0,1-.37-3.37v-1.91a10.976,10.976,0,0,1,.43-3.41,3.466,3.466,0,0,1,1.31-1.88,4.239,4.239,0,0,1,2.35-.59,3.964,3.964,0,0,1,2.3.6,3.5,3.5,0,0,1,1.26,1.88,11.621,11.621,0,0,1,.4,3.4v1.91a11.867,11.867,0,0,1-.39,3.38,3.294,3.294,0,0,1-1.26,1.87,4.117,4.117,0,0,1-2.37.59A4.189,4.189,0,0,1,2618.39,8823.37Zm3.26-2.06a6.576,6.576,0,0,0,.24-2.1v-4.1a6.446,6.446,0,0,0-.24-2.07,0.865,0.865,0,0,0-1.68,0,6.117,6.117,0,0,0-.25,2.07v4.1a6.576,6.576,0,0,0,.24,2.1,0.837,0.837,0,0,0,.84.64A0.856,0.856,0,0,0,2621.65,8821.31Zm41.48-3.14v0.66a17.226,17.226,0,0,0,.08,1.9,1.869,1.869,0,0,0,.3.92,0.861,0.861,0,0,0,.72.29,0.9,0.9,0,0,0,.89-0.51,4.527,4.527,0,0,0,.27-1.72l2.5,0.15a2.909,2.909,0,0,1,.03.47,3.541,3.541,0,0,1-.98,2.73,3.964,3.964,0,0,1-2.77.9,3.3,3.3,0,0,1-3.02-1.37,8.266,8.266,0,0,1-.86-4.25v-2.3a8.122,8.122,0,0,1,.89-4.32,3.4,3.4,0,0,1,3.07-1.37,4.027,4.027,0,0,1,2.3.56,2.957,2.957,0,0,1,1.12,1.74,12.646,12.646,0,0,1,.33,3.26v2.26h-4.87Zm0.37-5.54a1.8,1.8,0,0,0-.29.91,17.517,17.517,0,0,0-.08,1.92v0.95h2.13v-0.95a18.048,18.048,0,0,0-.08-1.92,1.847,1.847,0,0,0-.31-0.92,0.839,0.839,0,0,0-.68-0.27A0.823,0.823,0,0,0,2663.5,8812.63Zm-52.19,5.29-3.31-12.17h2.88l1.16,5.52c0.3,1.36.52,2.51,0.66,3.47h0.08c0.1-.68.32-1.84,0.65-3.45l1.21-5.54h2.88l-3.35,12.17v5.84h-2.86v-5.84Zm22.9-7.32v13.16h-2.28l-0.25-1.61h-0.06a2.983,2.983,0,0,1-2.78,1.82,2.158,2.158,0,0,1-1.9-.86,4.634,4.634,0,0,1-.61-2.68v-9.83h2.91v9.66a2.9,2.9,0,0,0,.19,1.25,0.631,0.631,0,0,0,.63.38,1.3,1.3,0,0,0,.73-0.24,1.353,1.353,0,0,0,.51-0.6V8810.6h2.91Zm14.91,0v13.16h-2.27l-0.26-1.61h-0.06a2.973,2.973,0,0,1-2.78,1.82,2.158,2.158,0,0,1-1.9-.86,4.714,4.714,0,0,1-.61-2.68v-9.83h2.91v9.66a2.9,2.9,0,0,0,.19,1.25,0.648,0.648,0,0,0,.63.38,1.272,1.272,0,0,0,.73-0.24,1.442,1.442,0,0,0,.52-0.6V8810.6h2.9Zm-7.01-2.47h-2.89v15.63h-2.84v-15.63h-2.89v-2.38h8.62v2.38Zm16.63,4.57a3.368,3.368,0,0,0-.85-1.8,2.261,2.261,0,0,0-1.62-.56,2.752,2.752,0,0,0-1.5.46,3.153,3.153,0,0,0-1.07,1.22h-0.02v-6.94h-2.8v18.68h2.4l0.29-1.25h0.07a2.381,2.381,0,0,0,1.01,1.05,2.934,2.934,0,0,0,1.49.39,2.277,2.277,0,0,0,2.17-1.38,10.065,10.065,0,0,0,.7-4.33v-2.08A17.239,17.239,0,0,0,2658.74,8812.7Zm-2.66,5.37a16.254,16.254,0,0,1-.12,2.25,2.3,2.3,0,0,1-.39,1.16,0.878,0.878,0,0,1-.73.35,1.32,1.32,0,0,1-.67-0.18,1.209,1.209,0,0,1-.49-0.51v-7.47a1.869,1.869,0,0,1,.5-0.88,1.1,1.1,0,0,1,.78-0.34,0.793,0.793,0,0,1,.69.35,2.749,2.749,0,0,1,.33,1.19,20.656,20.656,0,0,1,.1,2.38v1.7Z" transform="translate(-2598 -8760)"/>
</svg>
